<svg xmlns="http://www.w3.org/2000/svg" viewBox="141.54995727539062 141.5500030517578 567.29443359375 567.2861938476562"><g><linearGradient id="a" x1="185.787" x2="708.84" y1="461.083" y2="461.083" gradientUnits="userSpaceOnUse"><stop offset="0" stop-color="#fff21f"/><stop offset=".059" stop-color="#ffe400"/><stop offset=".13" stop-color="#fed700"/><stop offset=".203" stop-color="#fdcf00"/><stop offset=".281" stop-color="#fccd00"/><stop offset=".668" stop-color="#f1942e"/><stop offset=".888" stop-color="#ea652d"/><stop offset="1" stop-color="#e5352b"/></linearGradient><path fill="#850926" d="M577.61 213.33c12.84 0 25.53.66 38.05 1.86-50.38-45.73-117.22-73.64-190.46-73.64-156.4 0-283.65 127.24-283.65 283.65 0 55.82 16.28 107.89 44.24 151.82 15.02-203.35 184.63-363.69 391.82-363.69z" opacity="1" data-original="#f4dd25"/><path fill="#850926" d="M423.31 708.83c155.82 1.02 283.96-124.93 285.52-280.75.84-84.31-35.3-160.36-93.17-212.89-12.52-1.2-25.21-1.86-38.05-1.86-207.18 0-376.8 160.35-391.82 363.69 50.06 78.66 137.72 131.16 237.52 131.81z" opacity="1" data-original="url(#a)" class=""/><g fill="#a"><path d="M425.2 654.53c-61.26 0-118.85-23.85-162.16-67.17s-67.17-100.91-67.17-162.16 23.85-118.85 67.17-162.17 100.91-67.17 162.16-67.17 118.85 23.85 162.17 67.17 67.17 100.91 67.17 162.17-23.85 118.85-67.17 162.16c-43.32 43.32-100.92 67.17-162.17 67.17zm0-448.67c-120.94 0-219.34 98.39-219.34 219.34 0 120.94 98.39 219.34 219.34 219.34 120.94 0 219.34-98.39 219.34-219.34-.01-120.95-98.4-219.34-219.34-219.34z" fill="#fff1e8" opacity="1" data-original="#ffffff"/><path d="M519.15 307.5h-37.31a3.07 3.07 0 0 0-3.07 3.07v2.25c0 2.27-2.4 3.78-4.42 2.75a86.985 86.985 0 0 0-27.51-8.62v-15.92a3.07 3.07 0 0 0-3.07-3.07h-36.83a3.07 3.07 0 0 0-3.07 3.07v16.44c-58.64 7.18-75.04 41.9-75.68 72.38-.32 15.21 3.26 29.36 7.52 38.51 0-.01.01-.01.01-.02 1.53 3.28 3.29 6.29 5.24 9.07 1.54 2.2 3.17 4.28 4.93 6.21h-12.05c-3.13 0-5.67 2.54-5.67 5.67v17.02h.32v81.96c0 3.13 2.54 5.67 5.67 5.67h26.17c6.04 0 11.01-4.59 11.6-10.47 6.31 3.68 19.84 6.58 32.03 8.58v14.71c0 3.13 2.54 5.67 5.67 5.67h31.62c3.13 0 5.67-2.54 5.67-5.67v-12.44c62.34-6.42 75.29-44.89 75.29-75.37 0-21.55-8.36-38.34-22.5-51.13h16.83c3.13 0 5.67-2.54 5.67-5.67v-101.6c0-1.68-1.37-3.05-3.06-3.05zm-72.22 187.11v-25.36c4.13 1.54 7.32 3.43 9.14 5.96 7.91 11 1.73 16.67-9.14 19.4zm-74.69-43.09c10.16 4.29 21.09 6.98 31.64 9.03v32.82c-17.22-6.74-29.8-22.72-31.64-41.85zm31.75-94.45v25.36c-4.13-1.54-7.32-3.43-9.14-5.96-7.91-11-1.73-16.68 9.14-19.4zm74.69 43.08c-10.16-4.29-21.09-6.98-31.64-9.03V358.3c17.22 6.74 29.8 22.72 31.64 41.85z" fill="#fff1e8" opacity="1" data-original="#fff1e8"/><path d="M401.61 353.85c-.67.35-1.32.71-1.98 1.07.67-.35 1.32-.72 1.98-1.07zM397.01 356.33c-.76.43-1.51.88-2.26 1.32.76-.44 1.5-.89 2.26-1.32zM392.51 358.96c-.75.45-1.48.93-2.23 1.4.75-.46 1.48-.94 2.23-1.4zM388.1 361.74c-.66.43-1.31.89-1.96 1.33.65-.45 1.3-.9 1.96-1.33zM383.79 364.65c-.68.48-1.35.98-2.02 1.47.67-.49 1.34-.99 2.02-1.47zM379.59 367.7c-.59.44-1.16.91-1.75 1.36.58-.46 1.16-.92 1.75-1.36zM375.49 370.88c-.5.4-.98.82-1.47 1.22.49-.4.97-.82 1.47-1.22zM371.5 374.2c-.53.46-1.05.93-1.58 1.4.53-.47 1.04-.95 1.58-1.4zM367.62 377.64c-.59.54-1.17 1.11-1.76 1.66.59-.55 1.16-1.12 1.76-1.66zM363.86 381.2c-.56.55-1.1 1.11-1.65 1.67.55-.56 1.09-1.12 1.65-1.67zM360.21 384.89c-.53.55-1.03 1.12-1.55 1.68.52-.56 1.03-1.13 1.55-1.68zM356.69 388.69c-.49.54-.96 1.11-1.44 1.66.48-.55.95-1.11 1.44-1.66zM353.29 392.61c-.44.52-.86 1.06-1.29 1.59.44-.53.86-1.07 1.29-1.59zM350.03 396.64c-.46.58-.89 1.18-1.34 1.76.45-.58.88-1.18 1.34-1.76zM339.75 411.45c.43-.69.84-1.4 1.28-2.08-.44.68-.86 1.38-1.28 2.08zM337.17 415.8c.38-.66.74-1.33 1.13-1.99-.39.65-.75 1.32-1.13 1.99zM345.69 402.48c.4-.57.79-1.14 1.2-1.7-.41.56-.8 1.13-1.2 1.7zM342.7 406.82c.4-.6.78-1.21 1.19-1.8-.41.6-.79 1.2-1.19 1.8zM404.23 352.55c.69-.34 1.38-.7 2.07-1.03-.7.33-1.38.69-2.07 1.03zM408.75 350.4c.78-.35 1.55-.72 2.33-1.06-.79.34-1.55.71-2.33 1.06zM438.29 340.35c1.03-.24 2.05-.49 3.09-.71-1.04.22-2.06.47-3.09.71zM414.05 348.1c.63-.26 1.25-.53 1.89-.79-.64.26-1.26.53-1.89.79zM418.96 346.17c.64-.24 1.27-.49 1.92-.72-.65.23-1.28.48-1.92.72zM424.07 344.37c.61-.2 1.21-.42 1.82-.62-.61.19-1.21.41-1.82.62zM429.34 342.7c.55-.16 1.09-.34 1.64-.49-.55.16-1.09.33-1.64.49zM433.88 341.44c.76-.2 1.5-.41 2.27-.6-.76.19-1.51.4-2.27.6zM442.72 339.39c1.31-.26 2.62-.53 3.95-.76-1.32.23-2.63.49-3.95.76zM459.38 336.95zM447.11 338.56c1.63-.28 3.27-.54 4.92-.77-1.65.22-3.29.48-4.92.77zM455 337.42c.81-.1 1.62-.21 2.44-.3-.82.09-1.63.2-2.44.3zM586.12 236.22c4.93 4.93 20.95 12.54 28.42 15.94 1.5.68 1.5 2.8 0 3.48-7.47 3.4-23.48 11-28.42 15.94-4.93 4.93-12.54 20.95-15.94 28.42-.68 1.5-2.8 1.5-3.48 0-3.4-7.47-11-23.48-15.94-28.42-4.93-4.93-20.95-12.54-28.42-15.94-1.5-.68-1.5-2.8 0-3.48 7.47-3.4 23.48-11 28.42-15.94 4.93-4.93 12.54-20.95 15.94-28.42.68-1.5 2.8-1.5 3.48 0 3.39 7.47 11 23.48 15.94 28.42z" fill="#fff1e8" opacity="1" data-original="#fff1e8"/></g></g></svg>