<svg xmlns="http://www.w3.org/2000/svg" viewBox="141.54995727539062 141.5500030517578 567.300048828125 567.2900390625"><g><linearGradient id="a" x1="185.79" x2="708.842" y1="461.085" y2="461.085" gradientUnits="userSpaceOnUse"><stop offset="0" stop-color="#fff21f"/><stop offset=".059" stop-color="#ffe400"/><stop offset=".13" stop-color="#fed700"/><stop offset=".203" stop-color="#fdcf00"/><stop offset=".281" stop-color="#fccd00"/><stop offset=".668" stop-color="#f1942e"/><stop offset=".888" stop-color="#ea652d"/><stop offset="1" stop-color="#e5352b"/></linearGradient><path fill="#850926" d="M425.2 708.84c156.4 0 283.65-127.24 283.65-283.65 0-83.16-35.98-158.07-93.18-210.01-12.52-1.2-25.21-1.86-38.05-1.86-207.18 0-376.8 160.35-391.82 363.69 50.37 79.17 138.82 131.83 239.4 131.83z" opacity="1" data-original="url(#a)"/><path fill="#850926" d="M577.61 213.33c12.84 0 25.53.66 38.05 1.86-50.38-45.73-117.22-73.64-190.46-73.64-156.4 0-283.65 127.24-283.65 283.65 0 55.82 16.28 107.89 44.24 151.82 15.02-203.35 184.64-363.69 391.82-363.69z" opacity="1" data-original="#f4dd25"/><path fill="#fff1e8" d="M534.2 450c3.37 7.88 5.23 16.54 5.23 25.64 0 25.96-15.18 48.44-37.13 59.03-.95.46-1.92.9-2.9 1.31a66.41 66.41 0 0 1-6.01 2.21c-1.02.32-2.06.61-3.11.88a65.507 65.507 0 0 1-16.35 2.07H434v10.23a5.27 5.27 0 0 1-3.22 4.85c-.63.27-1.32.41-2.05.41H417.3c-2.18 0-4.05-1.33-4.85-3.21-.27-.63-.41-1.32-.41-2.05v-10.1h-20.78v9.97c0 2.98-2.42 5.39-5.4 5.39h-11.17c-2.98 0-5.39-2.42-5.39-5.39v-9.97h-61.05c-6.85 0-12.4-5.55-12.4-12.4v-21.34c0-6.85 5.55-12.4 12.4-12.4h18.92V355.27h-18.92c-6.85 0-12.4-5.55-12.4-12.4v-21.34c0-6.85 5.55-12.41 12.4-12.41h61.05v-9.97c0-2.98 2.41-5.39 5.39-5.39h11.17c2.98 0 5.4 2.42 5.4 5.39v9.97h20.78v-10.1c0-.73.15-1.42.41-2.05a5.27 5.27 0 0 1 4.85-3.22h11.44c.73 0 1.42.15 2.05.41a5.27 5.27 0 0 1 3.22 4.85v10.23h24.15c7.9 0 15.48 1.41 22.5 3.98 1 .37 1.99.76 2.97 1.17 1.96.83 3.87 1.75 5.72 2.76.93.5 1.84 1.03 2.74 1.58 1.8 1.1 3.54 2.27 5.23 3.53 15.98 11.96 26.33 31.03 26.33 52.47a65.12 65.12 0 0 1-9.96 34.69 65.67 65.67 0 0 1-7.16 9.42c3.68 2.12 7.14 4.59 10.33 7.37.53.46 1.06.93 1.57 1.41a66.66 66.66 0 0 1 9.64 11.19c1.99 2.92 3.75 6 5.26 9.23.29.65.59 1.3.87 1.96zm-125.71-94.72v39.09h13.79c10.81 0 19.61-8.8 19.61-19.61 0-10.26-7.93-18.7-17.98-19.53-.33.03-.66.05-1 .05zm0 139.84h10.13c.59 0 1.16.05 1.72.13h16.36c10.82 0 19.61-8.8 19.61-19.61s-8.8-19.61-19.61-19.61h-28.21z" opacity="1" data-original="#f6f6f6"/><g fill="#fff1e8"><path d="M586.12 236.22c4.93 4.93 20.95 12.54 28.42 15.94 1.5.68 1.5 2.8 0 3.48-7.47 3.4-23.48 11-28.42 15.94-4.93 4.93-12.54 20.95-15.94 28.42-.68 1.5-2.8 1.5-3.48 0-3.4-7.47-11-23.48-15.94-28.42-4.93-4.93-20.95-12.54-28.42-15.94-1.5-.68-1.5-2.8 0-3.48 7.47-3.4 23.48-11 28.42-15.94 4.93-4.93 12.54-20.95 15.94-28.42.68-1.5 2.8-1.5 3.48 0 3.39 7.47 11 23.48 15.94 28.42z" fill="#fff1e8" opacity="1" data-original="#ffffff"/><path d="M425.2 654.53c-61.26 0-118.85-23.86-162.16-67.17-43.32-43.32-67.17-100.91-67.17-162.17s23.85-118.85 67.17-162.16 100.91-67.17 162.16-67.17 118.85 23.86 162.17 67.17 67.17 100.91 67.17 162.16-23.85 118.85-67.17 162.17-100.91 67.17-162.17 67.17zm0-448.67c-120.94 0-219.34 98.39-219.34 219.33s98.39 219.34 219.34 219.34c120.94 0 219.34-98.39 219.34-219.34 0-120.93-98.4-219.33-219.34-219.33z" fill="#fff1e8" opacity="1" data-original="#ffffff"/></g></g></svg>