<svg xmlns="http://www.w3.org/2000/svg" viewBox="141.54995727539062 143.3699951171875 567.2900390625 567.2999877929688"><g><linearGradient id="a" x1="185.788" x2="708.84" y1="462.913" y2="462.913" gradientUnits="userSpaceOnUse"><stop offset="0" stop-color="#fff21f"></stop><stop offset=".059" stop-color="#ffe400"></stop><stop offset=".13" stop-color="#fed700"></stop><stop offset=".203" stop-color="#fdcf00"></stop><stop offset=".281" stop-color="#fccd00"></stop><stop offset=".668" stop-color="#f1942e"></stop><stop offset=".888" stop-color="#ea652d"></stop><stop offset="1" stop-color="#e5352b"></stop></linearGradient><path fill="#850926" d="M577.61 215.15c12.84 0 25.53.66 38.05 1.86-50.38-45.73-117.22-73.64-190.46-73.64-156.4 0-283.65 127.24-283.65 283.65 0 55.82 16.28 107.89 44.24 151.82 15.02-203.34 184.64-363.69 391.82-363.69z" opacity="1" data-original="#f4dd25"></path><path fill="#850926" d="M425.19 710.67c156.4 0 283.65-127.24 283.65-283.65 0-83.16-35.98-158.07-93.18-210.01-12.52-1.2-25.21-1.86-38.05-1.86-207.18 0-376.8 160.35-391.82 363.69 50.37 79.16 138.83 131.83 239.4 131.83z" opacity="1" data-original="url(#a)"></path><g fill="#fff1e8"><path d="M425.2 656.36c-61.26 0-118.85-23.86-162.16-67.17s-67.17-100.91-67.17-162.17 23.86-118.85 67.17-162.17 100.91-67.17 162.16-67.17 118.85 23.86 162.17 67.17 67.17 100.91 67.17 162.17-23.86 118.85-67.17 162.17-100.92 67.17-162.17 67.17zm0-448.67c-120.94 0-219.33 98.39-219.33 219.34s98.39 219.34 219.33 219.34 219.34-98.39 219.34-219.34-98.4-219.34-219.34-219.34z" fill="#fff1e8" opacity="1" data-original="#ffffff"></path><path d="m516.26 420.72 5.78-5.77c6.92-6.93 9.74-16.95 7.35-26.17-4.08-15.71-15.73-25.47-30.4-25.47-8.49 0-17.26 3.2-25.66 9.23 7.38-10.43 10.37-21.4 8.38-31.44-1.84-9.28-7.88-16.87-16.99-21.35-2.48-1.22-5.13-2.2-7.88-2.91a26.27 26.27 0 0 0-6.61-.84c-7.22 0-14.35 2.99-19.55 8.19l-5.77 5.77-5.78-5.77c-5.21-5.21-12.33-8.19-19.55-8.19-2.24 0-4.46.28-6.61.84-12.16 3.16-20.96 10.93-24.14 21.31-3.19 10.4-.54 22.32 7.12 33.58-8.05-5.51-16.4-8.42-24.51-8.42-14.67 0-26.32 9.76-30.4 25.47-2.4 9.21.42 19.24 7.35 26.17l5.78 5.77-5.78 5.77c-6.93 6.93-9.74 16.96-7.35 26.17.72 2.75 1.69 5.4 2.91 7.88 5.49 11.18 15.52 17.59 27.51 17.59 8.1 0 16.45-2.92 24.49-8.42-7.66 11.25-10.3 23.16-7.11 33.57 3.18 10.38 11.98 18.15 24.14 21.31 2.15.56 4.38.84 6.61.84 7.22 0 14.35-2.99 19.55-8.19l5.77-5.77 5.78 5.77c5.2 5.21 12.33 8.19 19.55 8.19 2.23 0 4.46-.28 6.61-.84 2.75-.71 5.4-1.69 7.88-2.91 9.11-4.48 15.15-12.06 16.99-21.34 1.17-5.87.58-12.07-1.55-18.28 14.53 18.13 30.46 46.5 27.69 81.82l21.35-12.43s-4.95-31.14-46.06-77.01c5.28 2.34 10.61 3.69 15.83 3.69 11.98 0 22.01-6.41 27.5-17.58 1.22-2.47 2.2-5.13 2.91-7.88 2.39-9.21-.42-19.24-7.35-26.17zM586.12 236.22c4.93 4.93 20.95 12.54 28.42 15.94 1.5.68 1.5 2.8 0 3.48-7.47 3.4-23.48 11-28.42 15.94-4.93 4.93-12.54 20.95-15.94 28.42-.68 1.5-2.8 1.5-3.48 0-3.4-7.47-11-23.48-15.94-28.42-4.93-4.93-20.95-12.54-28.42-15.94-1.5-.68-1.5-2.8 0-3.48 7.47-3.4 23.48-11 28.42-15.94 4.93-4.93 12.54-20.95 15.94-28.42.68-1.5 2.8-1.5 3.48 0 3.39 7.47 11 23.48 15.94 28.42z" fill="#fff1e8" opacity="1" data-original="#ffffff"></path></g></g></svg>