<svg xmlns="http://www.w3.org/2000/svg" viewBox="141.54995727539062 141.5500030517578 567.300048828125 567.2900390625"><g><linearGradient id="a" x1="185.79" x2="708.842" y1="461.085" y2="461.085" gradientUnits="userSpaceOnUse"><stop offset="0" stop-color="#fff21f"/><stop offset=".059" stop-color="#ffe400"/><stop offset=".13" stop-color="#fed700"/><stop offset=".203" stop-color="#fdcf00"/><stop offset=".281" stop-color="#fccd00"/><stop offset=".668" stop-color="#f1942e"/><stop offset=".888" stop-color="#ea652d"/><stop offset="1" stop-color="#e5352b"/></linearGradient><path fill="#850926" d="M577.61 213.33c12.84 0 25.53.66 38.05 1.86-50.38-45.73-117.22-73.64-190.46-73.64-156.4 0-283.65 127.24-283.65 283.65 0 55.82 16.28 107.89 44.24 151.82 15.02-203.35 184.64-363.69 391.82-363.69z" opacity="1" data-original="#f4dd25"/><path fill="#850926" d="M425.2 708.84c156.4 0 283.65-127.24 283.65-283.65 0-83.16-35.98-158.07-93.18-210.01-12.52-1.2-25.21-1.86-38.05-1.86-207.18 0-376.8 160.35-391.82 363.69 50.37 79.17 138.82 131.83 239.4 131.83z" opacity="1" data-original="url(#a)"/><g fill="#fff"><path d="M425.2 654.53c-61.26 0-118.85-23.86-162.16-67.17s-67.17-100.91-67.17-162.16 23.86-118.85 67.17-162.17 100.91-67.17 162.16-67.17 118.85 23.86 162.17 67.17 67.17 100.91 67.17 162.17-23.86 118.85-67.17 162.16-100.91 67.17-162.17 67.17zm0-448.67c-120.94 0-219.33 98.39-219.33 219.34 0 120.94 98.39 219.33 219.33 219.33s219.34-98.39 219.34-219.33c-.01-120.94-98.4-219.34-219.34-219.34z" fill="#fff1e8" opacity="1" data-original="#fff1e8"/><path d="M495.47 392.69h-55.39c-5.17 0-8.09-5.93-4.94-10.03l53.07-69.16c3.15-4.1.22-10.03-4.94-10.03h-74.92c-2.59 0-4.9 1.6-5.82 4.01l-53.4 140.22c-1.55 4.08 1.46 8.45 5.82 8.45h43.55c4.68 0 7.69 4.98 5.52 9.12l-45.92 87.62c-1.12 2.14 1.72 4.14 3.35 2.35L500.09 403.1c3.63-3.98.79-10.41-4.62-10.41zM586.12 240.74c4.93 4.93 20.95 12.54 28.42 15.94 1.5.68 1.5 2.8 0 3.48-7.47 3.4-23.48 11-28.42 15.94-4.93 4.93-12.54 20.95-15.94 28.42-.68 1.5-2.8 1.5-3.48 0-3.4-7.47-11-23.48-15.94-28.42-4.93-4.93-20.95-12.54-28.42-15.94-1.5-.68-1.5-2.8 0-3.48 7.47-3.4 23.48-11 28.42-15.94 4.93-4.93 12.54-20.95 15.94-28.42.68-1.5 2.8-1.5 3.48 0 3.4 7.47 11.01 23.49 15.94 28.42z" fill="#fff1e8" opacity="1" data-original="#ffffff"/></g></g></svg>